<?xml version="1.0" encoding="UTF-8"?>
<svg xmlns="http://www.w3.org/2000/svg" xmlns:xlink="http://www.w3.org/1999/xlink" width="37.5pt" height="37.499999pt" viewBox="0 0 37.5 37.499999" version="1.2">
<defs>
<clipPath id="clip1">
  <path d="M 0 1 L 37 1 L 37 36.917969 L 0 36.917969 Z M 0 1 "/>
</clipPath>
</defs>
<g id="surface1">
<g clip-path="url(#clip1)" clip-rule="nonzero">
<path style=" stroke:none;fill-rule:nonzero;fill:rgb(98.039246%,37.649536%,0%);fill-opacity:1;" d="M 21.101562 2.882812 L 25.238281 11.339844 L 34.480469 12.695312 C 36.632812 13.011719 37.496094 15.683594 35.9375 17.21875 L 29.246094 23.800781 L 30.824219 33.09375 C 31.191406 35.257812 28.941406 36.910156 27.015625 35.886719 L 18.746094 31.5 L 10.480469 35.886719 C 8.554688 36.910156 6.304688 35.257812 6.671875 33.09375 L 8.25 23.800781 L 1.5625 17.21875 C 0.00390625 15.683594 0.863281 13.011719 3.015625 12.695312 L 12.261719 11.339844 L 16.394531 2.882812 C 17.355469 0.914062 20.140625 0.914062 21.101562 2.882812 Z M 21.101562 2.882812 "/>
</g>
</g>
</svg>
